<svg width="360" height="280" viewBox="0 0 360 280" fill="none" xmlns="http://www.w3.org/2000/svg">
<path fill-rule="evenodd" clip-rule="evenodd" d="M134.5 49L155 89.59H114L134.5 49Z" fill="#0E6AC7"/>
<path fill-rule="evenodd" clip-rule="evenodd" d="M134.45 130.081L114 89.59H155L154.95 89.689L175.4 130.18H134.4L134.45 130.081Z" fill="#0E6AC7" fill-opacity="0.8"/>
<path fill-rule="evenodd" clip-rule="evenodd" d="M93.5 130.18H134.5L114 170.77H73L93.5 130.18Z" fill="#0E6AC7"/>
<path fill-rule="evenodd" clip-rule="evenodd" d="M114 89.59L134.5 130.18H93.5L114 89.59Z" fill="#0E6AC7" fill-opacity="0.8"/>
<path fill-rule="evenodd" clip-rule="evenodd" d="M195.85 170.671L195.9 170.77H154.9L175.35 130.279L175.3 130.18H216.3L195.85 170.671V170.671Z" fill="#0E6AC7" fill-opacity="0.8"/>
<path fill-rule="evenodd" clip-rule="evenodd" d="M195.8 89.59L216.3 130.18H175.3L195.8 89.59Z" fill="#0E6AC7"/>
<path fill-rule="evenodd" clip-rule="evenodd" d="M236.6 89.59L257.1 130.18H216.1L195.6 89.59H236.6Z" fill="#0E6AC7" fill-opacity="0.8"/>
<path fill-rule="evenodd" clip-rule="evenodd" d="M216.1 49L236.6 89.59H195.6L216.1 49Z" fill="#0E6AC7" fill-opacity="0.6"/>
<path fill-rule="evenodd" clip-rule="evenodd" d="M236.6 170.77L216.1 130.18H257.1L236.6 170.77Z" fill="#0E6AC7"/>
<path fill-rule="evenodd" clip-rule="evenodd" d="M257.1 130.18L277.6 170.77H236.6L257.1 130.18Z" fill="#0E6AC7" fill-opacity="0.8"/>
<path fill-rule="evenodd" clip-rule="evenodd" d="M154.9 170.77L134.4 130.18H175.4L154.9 170.77Z" fill="#0E6AC7" fill-opacity="0.6"/>
<path d="M31.768 232V217.048H34.144L37.048 223.912L39.952 217.024H42.328V232H39.976V221.56L37.624 227.056H36.304L34.096 221.584V232H31.768ZM46.024 236.224C45.48 236.224 45 236.136 44.584 235.96C44.168 235.784 43.76 235.528 43.36 235.192L44.296 233.32L44.392 233.104L44.608 233.2C44.656 233.328 44.712 233.448 44.776 233.56C44.84 233.672 44.984 233.8 45.208 233.944C45.448 234.072 45.72 234.136 46.024 234.136C46.504 234.136 46.888 233.936 47.176 233.536C47.48 233.136 47.784 232.504 48.088 231.64L43.744 220.84H46.456L49.312 228.208L50.512 224.8C50.752 224.112 50.952 223.448 51.112 222.808C51.272 222.168 51.376 221.512 51.424 220.84H53.944C53.88 221.56 53.712 222.32 53.44 223.12C53.168 223.92 52.896 224.68 52.624 225.4L49.864 232.984C49.416 234.168 48.872 235 48.232 235.48C47.608 235.976 46.872 236.224 46.024 236.224ZM71.752 232.288C70.52 232.288 69.56 232 68.872 231.424C68.2 230.848 67.864 230.088 67.864 229.144C67.864 227.96 68.392 226.984 69.448 226.216C70.52 225.432 72.072 225.04 74.104 225.04C74.216 225.04 74.36 225.04 74.536 225.04C74.728 225.04 74.928 225.048 75.136 225.064C75.024 224.136 74.76 223.512 74.344 223.192C73.928 222.856 73.368 222.688 72.664 222.688C72.152 222.688 71.672 222.776 71.224 222.952C70.776 223.112 70.328 223.416 69.88 223.864L68.392 222.232C69.032 221.64 69.728 221.216 70.48 220.96C71.232 220.704 72 220.576 72.784 220.576C73.712 220.576 74.56 220.728 75.328 221.032C76.096 221.32 76.704 221.832 77.152 222.568C77.6 223.288 77.824 224.288 77.824 225.568V232H75.016V230.8C74.6 231.36 74.12 231.752 73.576 231.976C73.032 232.184 72.424 232.288 71.752 232.288ZM70.576 228.808C70.576 229.32 70.736 229.68 71.056 229.888C71.392 230.08 71.8 230.176 72.28 230.176C73.144 230.176 73.816 229.92 74.296 229.408C74.776 228.88 75.064 228.056 75.16 226.936C74.952 226.936 74.752 226.936 74.56 226.936C74.368 226.92 74.2 226.912 74.056 226.912C72.776 226.912 71.872 227.088 71.344 227.44C70.832 227.792 70.576 228.248 70.576 228.808ZM84.424 232.264C83.592 232.264 82.824 232.048 82.12 231.616C81.432 231.184 80.872 230.528 80.44 229.648C80.008 228.768 79.792 227.672 79.792 226.36C79.792 225.064 80 223.992 80.416 223.144C80.832 222.28 81.392 221.632 82.096 221.2C82.8 220.768 83.584 220.552 84.448 220.552C85.008 220.552 85.528 220.656 86.008 220.864C86.488 221.072 86.864 221.408 87.136 221.872V215.896H90.04V216.112C89.944 216.208 89.88 216.32 89.848 216.448C89.832 216.56 89.824 216.744 89.824 217L89.8 230.512C89.8 230.768 89.816 231.016 89.848 231.256C89.88 231.496 89.952 231.744 90.064 232H87.4C87.272 231.744 87.2 231.544 87.184 231.4C87.168 231.24 87.16 231.032 87.16 230.776C86.856 231.288 86.464 231.664 85.984 231.904C85.504 232.144 84.984 232.264 84.424 232.264ZM84.88 230.08C86.352 230.08 87.088 228.848 87.088 226.384C87.088 223.904 86.328 222.664 84.808 222.664C84.04 222.664 83.456 222.992 83.056 223.648C82.656 224.304 82.456 225.192 82.456 226.312C82.456 227.496 82.688 228.424 83.152 229.096C83.632 229.752 84.208 230.08 84.88 230.08ZM95.896 232L91.696 220.84H94.528L97.216 228.352L98.512 225.184C98.816 224.416 99.056 223.672 99.232 222.952C99.424 222.216 99.544 221.512 99.592 220.84H102.136C102.056 221.544 101.88 222.296 101.608 223.096C101.352 223.88 101.056 224.68 100.72 225.496L98.032 232H95.896ZM109.504 232.264C108.432 232.264 107.472 232.04 106.624 231.592C105.792 231.144 105.136 230.488 104.656 229.624C104.176 228.76 103.936 227.72 103.936 226.504C103.936 225.256 104.168 224.192 104.632 223.312C105.112 222.432 105.744 221.76 106.528 221.296C107.328 220.816 108.216 220.576 109.192 220.576C110.056 220.576 110.848 220.776 111.568 221.176C112.304 221.576 112.888 222.184 113.32 223C113.768 223.8 113.992 224.8 113.992 226C113.992 226.16 113.984 226.352 113.968 226.576C113.968 226.8 113.96 226.992 113.944 227.152H106.552C106.584 227.856 106.752 228.432 107.056 228.88C107.36 229.312 107.736 229.632 108.184 229.84C108.632 230.048 109.112 230.152 109.624 230.152C110.12 230.152 110.592 230.072 111.04 229.912C111.488 229.752 111.904 229.48 112.288 229.096L113.68 230.44C113.136 231.08 112.512 231.544 111.808 231.832C111.104 232.12 110.336 232.264 109.504 232.264ZM106.6 225.112H111.352C111.352 224.328 111.152 223.728 110.752 223.312C110.352 222.896 109.792 222.688 109.072 222.688C108.448 222.688 107.904 222.888 107.44 223.288C106.976 223.672 106.696 224.28 106.6 225.112ZM117.136 220.84H119.944L119.92 222.64C120.224 222 120.672 221.496 121.264 221.128C121.856 220.76 122.48 220.576 123.136 220.576C124.384 220.576 125.416 221 126.232 221.848L125.08 224.128L125.008 224.32L124.792 224.224C124.744 224.096 124.696 223.968 124.648 223.84C124.6 223.696 124.48 223.536 124.288 223.36C124.064 223.184 123.824 223.048 123.568 222.952C123.328 222.856 123.064 222.808 122.776 222.808C122.008 222.808 121.336 223.072 120.76 223.6C120.184 224.128 119.896 224.976 119.896 226.144V232H117.136V220.84ZM134.176 232.24C133.312 232.24 132.6 232.056 132.04 231.688C131.48 231.304 131.072 230.672 130.816 229.792C130.56 228.912 130.464 227.72 130.528 226.216L130.648 222.976H128.368L128.416 220.84H130.744L130.84 218.2L133.648 217.84L133.864 217.816L133.888 218.032C133.808 218.144 133.736 218.264 133.672 218.392C133.624 218.504 133.592 218.688 133.576 218.944L133.408 220.84H137.008L136.984 222.976H133.384L133.24 226.168C133.192 227.208 133.224 228.008 133.336 228.568C133.464 229.128 133.648 229.52 133.888 229.744C134.144 229.952 134.448 230.056 134.8 230.056C135.312 230.056 135.768 229.952 136.168 229.744C136.584 229.536 136.968 229.296 137.32 229.024L137.896 230.992C137.336 231.392 136.752 231.704 136.144 231.928C135.536 232.136 134.88 232.24 134.176 232.24ZM141.016 232V229.864H143.752V222.976H141.16V220.84H146.488V229.864H148.984V232H141.016ZM145 218.992C144.52 218.992 144.112 218.832 143.776 218.512C143.456 218.192 143.296 217.808 143.296 217.36C143.296 216.896 143.456 216.512 143.776 216.208C144.096 215.888 144.504 215.728 145 215.728C145.448 215.728 145.84 215.888 146.176 216.208C146.528 216.528 146.704 216.912 146.704 217.36C146.704 217.808 146.528 218.192 146.176 218.512C145.84 218.832 145.448 218.992 145 218.992ZM157.216 232.264C156.192 232.264 155.248 232.128 154.384 231.856C153.52 231.584 152.752 231.128 152.08 230.488L153.28 228.28L153.376 228.088L153.568 228.208C153.616 228.32 153.664 228.448 153.712 228.592C153.76 228.72 153.88 228.872 154.072 229.048C154.472 229.384 154.92 229.648 155.416 229.84C155.928 230.032 156.544 230.128 157.264 230.128C157.936 230.128 158.456 230.016 158.824 229.792C159.192 229.568 159.376 229.272 159.376 228.904C159.376 228.536 159.168 228.24 158.752 228.016C158.352 227.792 157.688 227.544 156.76 227.272C155.544 226.952 154.576 226.52 153.856 225.976C153.136 225.432 152.776 224.704 152.776 223.792C152.776 222.88 153.168 222.12 153.952 221.512C154.752 220.888 155.824 220.576 157.168 220.576C159.008 220.576 160.504 221.144 161.656 222.28L160.336 224.128L160.168 224.32L160 224.176C159.984 224.048 159.944 223.928 159.88 223.816C159.832 223.704 159.712 223.552 159.52 223.36C159.2 223.136 158.832 222.968 158.416 222.856C158.016 222.728 157.616 222.664 157.216 222.664C156.672 222.664 156.2 222.752 155.8 222.928C155.416 223.104 155.224 223.376 155.224 223.744C155.224 224.064 155.432 224.336 155.848 224.56C156.264 224.784 156.976 225.024 157.984 225.28C159.328 225.616 160.304 226.064 160.912 226.624C161.52 227.168 161.824 227.872 161.824 228.736C161.824 229.376 161.648 229.968 161.296 230.512C160.944 231.04 160.424 231.464 159.736 231.784C159.064 232.104 158.224 232.264 157.216 232.264ZM165.016 232V229.864H167.752V222.976H165.16V220.84H170.488V229.864H172.984V232H165.016ZM169 218.992C168.52 218.992 168.112 218.832 167.776 218.512C167.456 218.192 167.296 217.808 167.296 217.36C167.296 216.896 167.456 216.512 167.776 216.208C168.096 215.888 168.504 215.728 169 215.728C169.448 215.728 169.84 215.888 170.176 216.208C170.528 216.528 170.704 216.912 170.704 217.36C170.704 217.808 170.528 218.192 170.176 218.512C169.84 218.832 169.448 218.992 169 218.992ZM176.32 232V220.84H179.032V222.376C179.432 221.832 179.896 221.4 180.424 221.08C180.952 220.744 181.56 220.576 182.248 220.576C182.888 220.576 183.48 220.736 184.024 221.056C184.584 221.36 185.032 221.856 185.368 222.544C185.704 223.232 185.872 224.136 185.872 225.256V232H183.16V225.304C183.16 224.392 183.016 223.728 182.728 223.312C182.44 222.88 182.04 222.664 181.528 222.664C181.128 222.664 180.736 222.776 180.352 223C179.968 223.208 179.648 223.512 179.392 223.912C179.152 224.312 179.032 224.792 179.032 225.352V232H176.32ZM192.52 228.232C191.96 228.232 191.424 228.144 190.912 227.968C190.768 228.096 190.648 228.216 190.552 228.328C190.456 228.424 190.408 228.56 190.408 228.736C190.408 229.024 190.696 229.24 191.272 229.384C191.848 229.528 192.832 229.6 194.224 229.6C195.184 229.6 195.936 229.736 196.48 230.008C197.024 230.28 197.416 230.648 197.656 231.112C197.896 231.56 198.016 232.048 198.016 232.576C198.016 233.2 197.824 233.792 197.44 234.352C197.072 234.928 196.496 235.392 195.712 235.744C194.944 236.112 193.952 236.296 192.736 236.296C191.152 236.296 189.912 236.024 189.016 235.48C188.12 234.952 187.672 234.24 187.672 233.344C187.672 232.864 187.824 232.416 188.128 232C188.448 231.6 188.84 231.28 189.304 231.04C189 230.848 188.76 230.624 188.584 230.368C188.424 230.096 188.344 229.784 188.344 229.432C188.344 228.968 188.472 228.56 188.728 228.208C188.984 227.856 189.296 227.528 189.664 227.224C189.264 226.888 188.944 226.48 188.704 226C188.48 225.504 188.368 224.968 188.368 224.392C188.368 223.672 188.544 223.024 188.896 222.448C189.264 221.856 189.76 221.384 190.384 221.032C191.008 220.68 191.72 220.504 192.52 220.504C193.032 220.504 193.52 220.584 193.984 220.744C194.448 220.904 194.856 221.128 195.208 221.416C195.64 221.112 196.12 220.88 196.648 220.72C197.176 220.56 197.744 220.504 198.352 220.552L198.616 222.424C198.2 222.344 197.784 222.328 197.368 222.376C196.968 222.424 196.6 222.536 196.264 222.712C196.52 223.24 196.648 223.8 196.648 224.392C196.648 225.128 196.464 225.784 196.096 226.36C195.744 226.936 195.256 227.392 194.632 227.728C194.008 228.064 193.304 228.232 192.52 228.232ZM192.496 226.264C193.04 226.264 193.488 226.088 193.84 225.736C194.192 225.384 194.368 224.936 194.368 224.392C194.368 223.864 194.184 223.432 193.816 223.096C193.464 222.744 193.024 222.568 192.496 222.568C192.016 222.568 191.584 222.744 191.2 223.096C190.832 223.448 190.648 223.88 190.648 224.392C190.648 224.904 190.824 225.344 191.176 225.712C191.544 226.08 191.984 226.264 192.496 226.264ZM189.76 232.936C189.76 233.368 190.056 233.68 190.648 233.872C191.256 234.08 192.024 234.184 192.952 234.184C193.864 234.184 194.56 234.064 195.04 233.824C195.536 233.584 195.784 233.264 195.784 232.864C195.784 232.496 195.624 232.232 195.304 232.072C195 231.928 194.392 231.856 193.48 231.856C192.984 231.856 192.496 231.832 192.016 231.784C191.536 231.736 191.088 231.664 190.672 231.568C190.416 231.76 190.2 231.96 190.024 232.168C189.848 232.376 189.76 232.632 189.76 232.936ZM217.504 232.264C216.432 232.264 215.472 232.04 214.624 231.592C213.792 231.144 213.136 230.488 212.656 229.624C212.176 228.76 211.936 227.72 211.936 226.504C211.936 225.256 212.168 224.192 212.632 223.312C213.112 222.432 213.744 221.76 214.528 221.296C215.328 220.816 216.216 220.576 217.192 220.576C218.056 220.576 218.848 220.776 219.568 221.176C220.304 221.576 220.888 222.184 221.32 223C221.768 223.8 221.992 224.8 221.992 226C221.992 226.16 221.984 226.352 221.968 226.576C221.968 226.8 221.96 226.992 221.944 227.152H214.552C214.584 227.856 214.752 228.432 215.056 228.88C215.36 229.312 215.736 229.632 216.184 229.84C216.632 230.048 217.112 230.152 217.624 230.152C218.12 230.152 218.592 230.072 219.04 229.912C219.488 229.752 219.904 229.48 220.288 229.096L221.68 230.44C221.136 231.08 220.512 231.544 219.808 231.832C219.104 232.12 218.336 232.264 217.504 232.264ZM214.6 225.112H219.352C219.352 224.328 219.152 223.728 218.752 223.312C218.352 222.896 217.792 222.688 217.072 222.688C216.448 222.688 215.904 222.888 215.44 223.288C214.976 223.672 214.696 224.28 214.6 225.112ZM223.672 232L227.536 226.408L223.72 220.84H226.576L228.976 224.296L231.208 220.84H233.944L230.416 226.312L234.424 232H231.496L228.976 228.448L226.576 232H223.672ZM236.152 236.008L236.128 220.816H238.816V222.376C239.168 221.752 239.616 221.296 240.16 221.008C240.704 220.72 241.304 220.576 241.96 220.576C242.776 220.576 243.512 220.8 244.168 221.248C244.84 221.68 245.376 222.336 245.776 223.216C246.176 224.08 246.376 225.16 246.376 226.456C246.376 227.768 246.168 228.856 245.752 229.72C245.336 230.584 244.784 231.232 244.096 231.664C243.424 232.08 242.696 232.288 241.912 232.288C241.32 232.288 240.752 232.184 240.208 231.976C239.664 231.768 239.232 231.456 238.912 231.04V236.008H236.152ZM241.168 230.176C241.632 230.176 242.056 230.056 242.44 229.816C242.824 229.576 243.128 229.176 243.352 228.616C243.576 228.056 243.688 227.288 243.688 226.312C243.688 225.208 243.472 224.336 243.04 223.696C242.624 223.056 242.048 222.728 241.312 222.712C240.544 222.696 239.944 223 239.512 223.624C239.096 224.232 238.888 225.232 238.888 226.624C238.92 228.992 239.68 230.176 241.168 230.176ZM253.504 232.264C252.432 232.264 251.472 232.04 250.624 231.592C249.792 231.144 249.136 230.488 248.656 229.624C248.176 228.76 247.936 227.72 247.936 226.504C247.936 225.256 248.168 224.192 248.632 223.312C249.112 222.432 249.744 221.76 250.528 221.296C251.328 220.816 252.216 220.576 253.192 220.576C254.056 220.576 254.848 220.776 255.568 221.176C256.304 221.576 256.888 222.184 257.32 223C257.768 223.8 257.992 224.8 257.992 226C257.992 226.16 257.984 226.352 257.968 226.576C257.968 226.8 257.96 226.992 257.944 227.152H250.552C250.584 227.856 250.752 228.432 251.056 228.88C251.36 229.312 251.736 229.632 252.184 229.84C252.632 230.048 253.112 230.152 253.624 230.152C254.12 230.152 254.592 230.072 255.04 229.912C255.488 229.752 255.904 229.48 256.288 229.096L257.68 230.44C257.136 231.08 256.512 231.544 255.808 231.832C255.104 232.12 254.336 232.264 253.504 232.264ZM250.6 225.112H255.352C255.352 224.328 255.152 223.728 254.752 223.312C254.352 222.896 253.792 222.688 253.072 222.688C252.448 222.688 251.904 222.888 251.44 223.288C250.976 223.672 250.696 224.28 250.6 225.112ZM261.136 220.84H263.944L263.92 222.64C264.224 222 264.672 221.496 265.264 221.128C265.856 220.76 266.48 220.576 267.136 220.576C268.384 220.576 269.416 221 270.232 221.848L269.08 224.128L269.008 224.32L268.792 224.224C268.744 224.096 268.696 223.968 268.648 223.84C268.6 223.696 268.48 223.536 268.288 223.36C268.064 223.184 267.824 223.048 267.568 222.952C267.328 222.856 267.064 222.808 266.776 222.808C266.008 222.808 265.336 223.072 264.76 223.6C264.184 224.128 263.896 224.976 263.896 226.144V232H261.136V220.84ZM273.016 232V229.864H275.752V222.976H273.16V220.84H278.488V229.864H280.984V232H273.016ZM277 218.992C276.52 218.992 276.112 218.832 275.776 218.512C275.456 218.192 275.296 217.808 275.296 217.36C275.296 216.896 275.456 216.512 275.776 216.208C276.096 215.888 276.504 215.728 277 215.728C277.448 215.728 277.84 215.888 278.176 216.208C278.528 216.528 278.704 216.912 278.704 217.36C278.704 217.808 278.528 218.192 278.176 218.512C277.84 218.832 277.448 218.992 277 218.992ZM289.504 232.264C288.432 232.264 287.472 232.04 286.624 231.592C285.792 231.144 285.136 230.488 284.656 229.624C284.176 228.76 283.936 227.72 283.936 226.504C283.936 225.256 284.168 224.192 284.632 223.312C285.112 222.432 285.744 221.76 286.528 221.296C287.328 220.816 288.216 220.576 289.192 220.576C290.056 220.576 290.848 220.776 291.568 221.176C292.304 221.576 292.888 222.184 293.32 223C293.768 223.8 293.992 224.8 293.992 226C293.992 226.16 293.984 226.352 293.968 226.576C293.968 226.8 293.96 226.992 293.944 227.152H286.552C286.584 227.856 286.752 228.432 287.056 228.88C287.36 229.312 287.736 229.632 288.184 229.84C288.632 230.048 289.112 230.152 289.624 230.152C290.12 230.152 290.592 230.072 291.04 229.912C291.488 229.752 291.904 229.48 292.288 229.096L293.68 230.44C293.136 231.08 292.512 231.544 291.808 231.832C291.104 232.12 290.336 232.264 289.504 232.264ZM286.6 225.112H291.352C291.352 224.328 291.152 223.728 290.752 223.312C290.352 222.896 289.792 222.688 289.072 222.688C288.448 222.688 287.904 222.888 287.44 223.288C286.976 223.672 286.696 224.28 286.6 225.112ZM296.32 232V220.84H299.032V222.376C299.432 221.832 299.896 221.4 300.424 221.08C300.952 220.744 301.56 220.576 302.248 220.576C302.888 220.576 303.48 220.736 304.024 221.056C304.584 221.36 305.032 221.856 305.368 222.544C305.704 223.232 305.872 224.136 305.872 225.256V232H303.16V225.304C303.16 224.392 303.016 223.728 302.728 223.312C302.44 222.88 302.04 222.664 301.528 222.664C301.128 222.664 300.736 222.776 300.352 223C299.968 223.208 299.648 223.512 299.392 223.912C299.152 224.312 299.032 224.792 299.032 225.352V232H296.32ZM313.672 232.288C312.584 232.288 311.608 232.04 310.744 231.544C309.88 231.048 309.192 230.368 308.68 229.504C308.184 228.624 307.936 227.624 307.936 226.504C307.936 225.4 308.184 224.4 308.68 223.504C309.192 222.608 309.88 221.896 310.744 221.368C311.608 220.84 312.592 220.576 313.696 220.576C314.72 220.576 315.616 220.768 316.384 221.152C317.152 221.536 317.76 222.064 318.208 222.736L316.696 224.392L316.552 224.56L316.36 224.416C316.36 224.272 316.344 224.144 316.312 224.032C316.28 223.904 316.176 223.736 316 223.528C315.696 223.24 315.352 223.04 314.968 222.928C314.6 222.816 314.184 222.76 313.72 222.76C313.192 222.76 312.696 222.904 312.232 223.192C311.768 223.48 311.392 223.904 311.104 224.464C310.832 225.024 310.696 225.704 310.696 226.504C310.696 227.224 310.84 227.856 311.128 228.4C311.416 228.928 311.792 229.344 312.256 229.648C312.736 229.936 313.248 230.08 313.792 230.08C314.288 230.08 314.776 229.976 315.256 229.768C315.736 229.56 316.184 229.2 316.6 228.688L318.112 230.416C317.52 231.072 316.832 231.552 316.048 231.856C315.264 232.144 314.472 232.288 313.672 232.288ZM325.504 232.264C324.432 232.264 323.472 232.04 322.624 231.592C321.792 231.144 321.136 230.488 320.656 229.624C320.176 228.76 319.936 227.72 319.936 226.504C319.936 225.256 320.168 224.192 320.632 223.312C321.112 222.432 321.744 221.76 322.528 221.296C323.328 220.816 324.216 220.576 325.192 220.576C326.056 220.576 326.848 220.776 327.568 221.176C328.304 221.576 328.888 222.184 329.32 223C329.768 223.8 329.992 224.8 329.992 226C329.992 226.16 329.984 226.352 329.968 226.576C329.968 226.8 329.96 226.992 329.944 227.152H322.552C322.584 227.856 322.752 228.432 323.056 228.88C323.36 229.312 323.736 229.632 324.184 229.84C324.632 230.048 325.112 230.152 325.624 230.152C326.12 230.152 326.592 230.072 327.04 229.912C327.488 229.752 327.904 229.48 328.288 229.096L329.68 230.44C329.136 231.08 328.512 231.544 327.808 231.832C327.104 232.12 326.336 232.264 325.504 232.264ZM322.6 225.112H327.352C327.352 224.328 327.152 223.728 326.752 223.312C326.352 222.896 325.792 222.688 325.072 222.688C324.448 222.688 323.904 222.888 323.44 223.288C322.976 223.672 322.696 224.28 322.6 225.112Z" fill="#3E84D2"/>
<mask id="path-13-inside-1" fill="white">
<rect width="360" height="280" rx="3"/>
</mask>
<rect width="360" height="280" rx="3" stroke="#3E84D2" stroke-width="16" mask="url(#path-13-inside-1)"/>
</svg>
